.
..............................Site Info...........................

 -   http://www.scenetime.com  *_*    

Scenetime .Always on time . friendly online private torrent community ..

     We care to share . Join us on  http://www.scenetime.com 

    Be the first to get new release at  http://www.scenetime.com

        Seed back for speed


...................................NFO:.................................................[IMG]http://i.imgur.com/qD9lu.gif[/IMG]

 
TITLE: 

The Bourne Legacy 2012 TS NEW SOURCE XViD - INSPiRAL

IMDB: 
 
http://www.imdb.com/title/tt1194173/


SOURCES:

VIDEO - MATiNE THANKS
AUDIO - SEEN-CM8 THANKS

SUBS  - None Add

STATS:

Video
ID                               : 0
Format                           : MPEG-4 Visual
Format profile                   : Advanced Simple@L5
Format settings, BVOP            : 2
Format settings, QPel            : No
Format settings, GMC             : No warppoints
Format settings, Matrix          : Default (MPEG)
Muxing mode                      : Packed bitstream
Codec ID                         : XVID
Codec ID/Hint                    : XviD
Duration                         : 2h 5mn
Bit rate                         : 2 219 Kbps
Width                            : 720 pixels
Height                           : 336 pixels
Display aspect ratio             : 2.2:1
Frame rate                       : 25.000 fps
Color space                      : YUV
Chroma subsampling               : 4:2:0
Bit depth                        : 8 bits
Scan type                        : Progressive
Compression mode                 : Lossy
Bits/(Pixel*Frame)               : 0.367
Stream size                      : 1.94 GiB (94%)
Writing library                  : XviD 64

Audio
ID                               : 1
Format                           : MPEG Audio
Format version                   : Version 1
Format profile                   : Layer 3
Mode                             : Joint stereo
Mode extension                   : MS Stereo
Codec ID                         : 55
Codec ID/Hint                    : MP3
Duration                         : 2h 5mn
Bit rate mode                    : Constant
Bit rate                         : 128 Kbps
Channel(s)                       : 2 channels
Sampling rate                    : 48.0 KHz
Compression mode                 : Lossy
Stream size                      : 115 MiB (5%)
Alignment                        : Split accross interleaves
Interleave, duration             : 40 ms (1.00 video frame)
Interleave, preload duration     : 500 ms



NOTES:

Ok ...took the 1080p release by MATiNE for this version and opted for the audio off seen-cm8's release :)
Video was a nice cam,but thought it needed some TLC.So we fixed the perspective better ,had too lose a little off the
left side so i could pull the video back up as it was slanted.
Also used a smoother,rgb eq,contrast,brightness,chroma and sharpen filters.
Audio thought was a tad better but not loads in it ....either way we opted to drop into AA and cleaned it up and converted
to mp3 and then remuxed.
Oh 720p coming soon aswell :P

Anyway enjoy folks :) 


SCREENS:

[img]http://i.imgrz.com/0GjXh.png[/img] 
[img]http://i.imgrz.com/26KnI.png[/img] 
[img]http://i.imgrz.com/fFsJn.png[/img] 
[img]http://i.imgrz.com/4mgbv.png[/img] 
[img]http://i.imgrz.com/GsIu.png[/img] 
[img]http://i.imgrz.com/xDLlX.png[/img]  


GREETZ: 

Past,Present and Future

[IMG]http://i.imgur.com/qD9lu.gif[/IMG]